<svg data-v-0dd9719b="" version="1.0" xmlns="http://www.w3.org/2000/svg" xmlns:xlink="http://www.w3.org/1999/xlink" width="100%" height="100%" viewBox="0 0 340.000000 250.000000" preserveAspectRatio="xMidYMid meet" color-interpolation-filters="sRGB" style="margin: auto;"> <rect data-v-0dd9719b="" x="0" y="0" width="100%" height="100%" fill="#fff" fill-opacity="1" class="background"></rect> <rect data-v-0dd9719b="" x="0" y="0" width="100%" height="100%" fill="url(#watermark)" fill-opacity="1" class="watermarklayer"></rect> <g data-v-0dd9719b="" fill="#00a0e9" class="icon-text-wrapper icon-svg-group iconsvg" transform="translate(82.56500267982483,71.82049942016602)"><g class="iconsvg-imagesvg" transform="translate(57.43499755859375,0)"><g><rect fill="#00a0e9" fill-opacity="0" stroke-width="2" x="0" y="0" width="60" height="60.00900135020253" class="image-rect"></rect> <svg x="0" y="0" width="60" height="60.00900135020253" filtersec="colorsb6993432257" class="image-svg-svg primary" style="overflow: visible;"><svg xmlns="http://www.w3.org/2000/svg" viewBox="0 -0.000003815132913587149 341.3800354003906 341.4300231933594"><defs><linearGradient id="a1a9fc257-90d2-4279-9ce4-ad2f91041dd1" x1="22.1" y1="319.28" x2="319.28" y2="22.1" gradientUnits="userSpaceOnUse"><stop offset="0" stop-color="#00a0e9"></stop><stop offset="1" stop-color="#54c3f1"></stop></linearGradient></defs><g><path d="M280.75 82.88H137.61a50.52 50.52 0 1 0 0 101h62.55a24.06 24.06 0 1 1 0 48.11h-62.55a98.63 98.63 0 1 1 0-197.27h191.87A75.33 75.33 0 0 0 266 0H75.41A75.41 75.41 0 0 0 0 75.41V258.5h203.77a50.52 50.52 0 1 0 0-101h-62.55a24.06 24.06 0 0 1 0-48.11h62.55a98.63 98.63 0 0 1 0 197.27H11.9a75.33 75.33 0 0 0 63.5 34.77H266A75.41 75.41 0 0 0 341.38 266V82.88z" fill="url(#a1a9fc257-90d2-4279-9ce4-ad2f91041dd1)"></path></g></svg></svg> <!----></g></g> <g transform="translate(0,67.00900268554688)"><g data-gra="path-name" fill-rule="" class="tp-name iconsvg-namesvg"><g transform="scale(1)"><g><path d="M15.18-38.54L15.18-38.54Q18.34-38.54 20.05-37.88 21.76-37.21 22.99-36.46L22.99-36.46Q23.63-36.09 24.03-35.9 24.43-35.71 24.81-35.71L24.81-35.71Q25.66-35.71 25.98-38.06L25.98-38.06 27.21-38.06Q27.16-37.05 27.08-35.63 27-34.21 26.97-31.92 26.94-29.62 26.94-25.87L26.94-25.87 25.71-25.87Q25.5-28.65 24.43-31.27 23.36-33.89 21.41-35.58 19.46-37.26 16.63-37.26L16.63-37.26Q14.06-37.26 12.4-35.82 10.75-34.37 10.75-31.81L10.75-31.81Q10.75-29.67 11.81-28.15 12.88-26.62 14.94-25.18 17-23.74 19.94-21.7L19.94-21.7Q22.51-20.05 24.54-18.39 26.57-16.73 27.8-14.65 29.03-12.56 29.03-9.68L29.03-9.68Q29.03-6.15 27.18-3.85 25.34-1.55 22.35-0.4 19.35 0.75 15.77 0.75L15.77 0.75Q12.46 0.75 10.48 0.11 8.5-0.53 7.16-1.23L7.16-1.23Q5.99-1.98 5.35-1.98L5.35-1.98Q4.49-1.98 4.17 0.37L4.17 0.37 2.94 0.37Q3.05-0.91 3.07-2.62 3.1-4.33 3.13-7.08 3.15-9.84 3.15-14.06L3.15-14.06 4.38-14.06Q4.6-10.53 5.59-7.46 6.58-4.38 8.63-2.51 10.69-0.64 14.11-0.64L14.11-0.64Q16.89-0.64 18.82-2.14 20.74-3.64 20.74-6.63L20.74-6.63Q20.74-9.94 18.5-12.11 16.25-14.27 12.72-16.57L12.72-16.57Q10.21-18.23 8.02-19.89 5.83-21.54 4.52-23.68 3.21-25.82 3.21-28.76L3.21-28.76Q3.21-32.13 4.89-34.29 6.58-36.46 9.33-37.5 12.08-38.54 15.18-38.54ZM52.44-38.6L52.44-38.6Q58.11-38.6 62.36-36.3 66.61-34 68.96-29.7 71.32-25.39 71.32-19.25L71.32-19.25Q71.32-13.26 68.91-8.77 66.5-4.28 62.2-1.76 57.9 0.75 52.39 0.75L52.39 0.75Q46.72 0.75 42.47-1.55 38.22-3.85 35.87-8.18 33.52-12.51 33.52-18.6L33.52-18.6Q33.52-24.59 35.95-29.08 38.38-33.57 42.63-36.09 46.88-38.6 52.44-38.6ZM52.23-37.64L52.23-37.64Q49.24-37.64 47.02-35.23 44.8-32.82 43.6-28.6 42.39-24.38 42.39-18.82L42.39-18.82Q42.39-13.15 43.76-8.95 45.12-4.76 47.45-2.49 49.77-0.21 52.6-0.21L52.6-0.21Q55.6-0.21 57.82-2.62 60.04-5.03 61.24-9.28 62.44-13.53 62.44-19.03L62.44-19.03Q62.44-24.75 61.08-28.92 59.71-33.09 57.39-35.36 55.06-37.64 52.23-37.64ZM91.52-37.85L91.52-37.85Q102.06-37.85 107.19-33.07 112.32-28.28 112.32-19.35L112.32-19.35Q112.32-13.53 109.81-9.17 107.29-4.81 102.51-2.41 97.72 0 91.04 0L91.04 0Q89.76 0 87.38-0.08 85-0.16 83.24-0.16L83.24-0.16Q80.89-0.16 78.61-0.13 76.34-0.11 75 0L75 0 75-1.07Q76.72-1.18 77.57-1.5 78.43-1.82 78.72-2.78 79.01-3.74 79.01-5.67L79.01-5.67 79.01-32.18Q79.01-34.16 78.72-35.1 78.43-36.03 77.54-36.38 76.66-36.73 75-36.78L75-36.78 75-37.85Q76.34-37.8 78.61-37.72 80.89-37.64 83.13-37.69L83.13-37.69Q85.05-37.74 87.49-37.8 89.92-37.85 91.52-37.85ZM91.47-36.89L91.47-36.89Q89.01-36.89 88.26-35.98 87.51-35.07 87.51-32.29L87.51-32.29 87.51-5.56Q87.51-2.78 88.29-1.87 89.06-0.96 91.52-0.96L91.52-0.96Q96.01-0.96 98.61-3.07 101.2-5.19 102.32-9.25 103.45-13.31 103.45-19.14L103.45-19.14Q103.45-28.12 100.67-32.5 97.89-36.89 91.47-36.89ZM132.79-37.96L132.79-37.96 145.79-4.49Q146.53-2.57 147.47-1.84 148.41-1.12 149.15-1.07L149.15-1.07 149.15 0Q147.55-0.11 145.38-0.13 143.22-0.16 141.03-0.16L141.03-0.16Q138.57-0.16 136.38-0.13 134.18-0.11 132.9 0L132.9 0 132.9-1.07Q135.63-1.18 136.35-2 137.07-2.83 136-5.56L136-5.56 126.91-30.42 127.88-31.81 119.75-10.64Q118.25-6.68 118.28-4.65 118.31-2.62 119.59-1.9 120.87-1.18 123.01-1.07L123.01-1.07 123.01 0Q121.25-0.11 119.64-0.13 118.04-0.16 116.38-0.16L116.38-0.16Q115.21-0.16 114.16-0.13 113.12-0.11 112.32 0L112.32 0 112.32-1.07Q113.44-1.28 114.62-2.51 115.79-3.74 116.92-6.68L116.92-6.68 129.11-37.96Q129.96-37.9 130.95-37.9 131.94-37.9 132.79-37.96ZM121.14-15.4L136.54-15.4 136.54-14.33 120.61-14.33 121.14-15.4ZM163.96-38.54L163.96-38.54Q167.12-38.54 168.83-37.88 170.54-37.21 171.77-36.46L171.77-36.46Q172.41-36.09 172.81-35.9 173.21-35.71 173.58-35.71L173.58-35.71Q174.44-35.71 174.76-38.06L174.76-38.06 175.99-38.06Q175.94-37.05 175.86-35.63 175.78-34.21 175.75-31.92 175.72-29.62 175.72-25.87L175.72-25.87 174.49-25.87Q174.28-28.65 173.21-31.27 172.14-33.89 170.19-35.58 168.24-37.26 165.41-37.26L165.41-37.26Q162.84-37.26 161.18-35.82 159.52-34.37 159.52-31.81L159.52-31.81Q159.52-29.67 160.59-28.15 161.66-26.62 163.72-25.18 165.78-23.74 168.72-21.7L168.72-21.7Q171.29-20.05 173.32-18.39 175.35-16.73 176.58-14.65 177.81-12.56 177.81-9.68L177.81-9.68Q177.81-6.15 175.96-3.85 174.12-1.55 171.13-0.4 168.13 0.75 164.55 0.75L164.55 0.75Q161.24 0.75 159.26 0.11 157.28-0.53 155.94-1.23L155.94-1.23Q154.77-1.98 154.13-1.98L154.13-1.98Q153.27-1.98 152.95 0.37L152.95 0.37 151.72 0.37Q151.83-0.91 151.85-2.62 151.88-4.33 151.91-7.08 151.93-9.84 151.93-14.06L151.93-14.06 153.16-14.06Q153.38-10.53 154.37-7.46 155.35-4.38 157.41-2.51 159.47-0.64 162.89-0.64L162.89-0.64Q165.67-0.64 167.6-2.14 169.52-3.64 169.52-6.63L169.52-6.63Q169.52-9.94 167.28-12.11 165.03-14.27 161.5-16.57L161.5-16.57Q158.99-18.23 156.8-19.89 154.61-21.54 153.3-23.68 151.99-25.82 151.99-28.76L151.99-28.76Q151.99-32.13 153.67-34.29 155.35-36.46 158.11-37.5 160.86-38.54 163.96-38.54Z" transform="translate(-2.940000057220459, 38.599998474121094)"></path></g> <!----> <!----> <!----> <!----> <!----> <!----> <!----></g></g> <!----></g></g></svg>